<?xml version="1.0" encoding="utf-8"?>
<!-- Generator: Adobe Illustrator 19.0.0, SVG Export Plug-In . SVG Version: 6.00 Build 0)  -->
<svg version="1.1" id="Layer_1" xmlns="http://www.w3.org/2000/svg" xmlns:xlink="http://www.w3.org/1999/xlink" x="0px" y="0px"
	 viewBox="-35 -54 720 720" style="enable-background:new -35 -54 720 720;" xml:space="preserve">
<style type="text/css">
	.st0{display:none;}
	.st1{fill:#FFFFFF;}
	.st2{fill:#00ACAD;stroke:#FFFFFF;stroke-width:22;stroke-miterlimit:10;}
	.st3{fill:#052441;}
</style>
<g id="Guías" class="st0">
</g>
<g id="Desktop">
</g>
<g id="Grid_x5F_Desktop" class="st0">
</g>
<g id="Tablet" class="st0">
</g>
<g id="Grid_x5F_Tablet" class="st0">
</g>
<g id="Mobile" class="st0">
</g>
<g id="Grid_x5F_Mobile" class="st0">
</g>
<g id="XMLID_1578_">
	<path id="XMLID_1533_" class="st1" d="M376.6,117.5c-11.3,0-22.6,2.5-32.7,7.7c-8,4.1-16.3,9.4-25.7,16.3c0,0,0,0,0,0
		c-13.8,10.2-27.7,22.4-41.1,34.2c-2.7,2.4-5.5,4.8-8.2,7.2c-31.2,27.3-57.1,54-79.2,81.7c-15.8,19.7-32.1,40.2-42.2,60.7
		c-9.3,18.8-11.7,34-8,49.4c4.4,18.1,22.9,44.2,61.7,63.2c42,20.6,87.5,35.7,139.3,46.3c27.6,5.6,85,17.4,122.5,3.9
		c13.6-4.9,25.9-14,34.7-25.8c27.4-36.6,10.4-103-3.2-156.4c-1.1-4.2-2.1-8.3-3.1-12.4c-1.3-5-2.5-10.1-3.8-15.3
		c-11.8-48-25.3-102.3-53.8-135.3C419.3,126.5,397.9,117.5,376.6,117.5z"/>
	<g id="XMLID_1501_">
		<path id="XMLID_1483_" class="st2" d="M420.4,586.5c-32.7,0-66-5.5-98.3-12.1c-59.5-12.2-112.3-29.8-161.4-53.9
			c-24.9-12.2-47.6-28.4-65.8-46.8c-23-23.4-38.1-49.4-44.9-77.5c-19.4-80.2,31-143.2,67.8-189.2c25.6-32,55.2-62.5,90.5-93.5
			c2.6-2.3,5.3-4.6,7.9-7c14.9-13.1,30.2-26.6,47.2-39.2c13.4-9.9,26-17.8,38.4-24.2C369,8.9,453.7,25.5,503.2,82.7
			c43,49.7,59.3,115.5,73.6,173.5c1.2,5,2.5,10,3.7,14.9c1,3.9,2,7.9,3.1,12c8.4,33,18,70.4,20.2,109.3
			c2.9,51.1-7.7,92.1-32.6,125.2c-19.7,26.3-46.4,46.1-77.1,57.1C470.5,583.2,445.7,586.5,420.4,586.5z M376.6,117.5
			c-11.3,0-22.6,2.5-32.7,7.7c-8,4.1-16.3,9.4-25.7,16.3c0,0,0,0,0,0c-13.8,10.2-27.7,22.4-41.1,34.2c-2.7,2.4-5.5,4.8-8.2,7.2
			c-31.2,27.3-57.1,54-79.2,81.7c-15.8,19.7-32.1,40.2-42.2,60.7c-9.3,18.8-11.7,34-8,49.4c4.4,18.1,22.9,44.2,61.7,63.2
			c42,20.6,87.5,35.7,139.3,46.3c27.6,5.6,85,17.4,122.5,3.9c13.6-4.9,25.9-14,34.7-25.8c27.4-36.6,10.4-103-3.2-156.4
			c-1.1-4.2-2.1-8.3-3.1-12.4c-1.3-5-2.5-10.1-3.8-15.3c-11.8-48-25.3-102.3-53.8-135.3C419.4,126.5,397.9,117.5,376.6,117.5z"/>
		<g id="_x38_OnnZW.tif_4_">
			<g id="XMLID_1476_">
				<path id="XMLID_1482_" class="st3" d="M366,119.9c14.1,10.3,27.4,21.4,39.8,33.3c7.8,7.6,15.3,15.4,22.3,23.5
					c1,1.2,2.3,2.2,2.8,4.2c-19.7-5.7-39.3-10.7-59.9-11.6c1.8,1.8,4.3,2,6.5,2.5c16.3,3.8,32.5,7.5,48,13.6
					c4.3,1.7,8.4,3.9,12.4,6.1c3.2,1.8,5.4,4.3,7.4,7.2c8.2,11.9,15.3,24.2,21.1,37.2c0.4,0.8,0.8,1.6,0.6,2.6
					c-0.1,0.2-0.3,0.3-0.4,0.5c-6-3.1-11.7-6.5-18-9.1c-19-7.9-38.7-13.7-59.3-17.2c-1-0.2-1.9-0.3-3.1,0.1c0.9,1.5,2.7,1.7,4.1,2.2
					c6.2,2.3,12.4,4.4,18.7,6.6c15.6,5.5,30.9,11.7,45.2,19.6c6.8,3.8,13.1,8.2,18.8,13.3c0.7,0.7,1,1.5,1.3,2.4
					c5.2,18.2,6.9,36.7,4.5,55.5c-0.1,0.7-0.2,1.4-0.4,2.1c-0.1,0.2-0.2,0.5-0.4,0.7c-26.4-23.5-59.4-34.8-94.3-42.3
					c1,1.4,2.6,2,4.2,2.6c15.8,6.4,31.7,12.6,46.8,20.2c11.8,5.9,23.4,12.2,33,20.9c2,1.8,3.7,3.7,5.3,5.7c1.8,2.2,2.9,4.4,2.2,7.4
					c-0.9,4.4,0.2,5.7,5,7.9c1.5,0.7,0.4,1.6,0.1,2.2c-2.6,4.8-5.5,9.5-8.7,14.1c-14,20.5-32.5,36.9-54.4,50.1
					c-5.5,3.3-11.2,6.2-17.2,8.8c-1.9,0.8-2.8,0.9-3.6-1.3c-2.5-6.4-2.5-6.3,4.3-9.2c5.5-2.3,11.2-4.4,15.9-8
					c9.1-7.1,12.4-17.8,8.8-28.2c-2.8-8.2-8.1-15.1-14.1-21.5c-9.4-10.2-20.5-18.7-31.2-27.8c-10.3-8.7-19.2-18.4-24.8-30.4
					c-3.5-7.4-5.4-15.2-5.9-23.2c-0.8-11.2,0.3-22.4,1.9-33.5c2.7-19.4,6.3-38.7,6.8-58.3c0.4-15.8-3.8-30.1-14-43
					c-4.9-6.2-10.5-11.5-16.8-16.4c-2.9-2.2-5.4-4.7-7.9-7.2c-0.5-0.5-1.3-1.2-0.9-1.8c0.4-0.9,1.6-0.5,2.4-0.5
					c15.1-0.1,30,1.6,44.5,5.1c21.1,5.1,40.6,13.2,58.4,24.7c30.6,19.8,52.3,45.9,65.3,78c0.3,0.7,0.7,1.4,0.3,2.1
					c-2.6,5.5-3.6,11.5-6,17.1c-1.1,2.6-2.3,5.1-3.9,7.5c-0.4,0.6-0.7,1.5-1.5,1.5c-1.2,0-1.1-1.1-1.4-1.8
					c-4.1-10.9-9.7-21.2-16-31.1c-3.5-5.6-7.4-11-11.6-16.2c-1.1-1.4-1.6-2.7-1.5-4.5c0.5-11.1-0.7-22-2.8-32.9
					c-0.1-0.5-0.3-1-0.6-1.7c-1,1.5-0.7,2.9-0.7,4.2c-0.1,7.1,0.2,14.2-1.4,21.2c-0.2,1-0.1,2.5-1.4,2.7c-1.1,0.2-1.6-1.1-2.3-1.9
					c-16.6-18.1-35.4-34-56.5-47.6C376.8,125.8,371.9,122.1,366,119.9c-0.2-0.2-0.3-0.3-0.5-0.5C365.7,119.6,365.8,119.8,366,119.9z
					"/>
				<path id="XMLID_1481_" class="st3" d="M352.4,518.9c-11.8,0-23.6-0.1-35.3,0.1c-2.7,0-3.1-0.7-2.5-3c2-8.6,5.7-16.8,8.5-25.2
					c2.7-8.1,5.3-16.1,5.3-24.7c0-3.3-0.6-6.6-1.7-9.8c-2.3-6.8-7.8-10.2-14.8-12.2c-28-8-50.2-12.1-75.6-25.9
					c-21.2-11.5-38.1-29.3-53-46.1c-10.5-11.9-44.4-65.5-28.9-78.7c4.4-3.7,9.7-5.1,15.5-2.8c7.3,2.8,12.5,7.9,17.2,13.6
					c6.5,7.8,11.5,16.4,17.1,24.8c8,12,15.8,24.2,26.9,34.1c7.8,6.9,16.3,13,26.9,15.9c5.4,1.5,10.9,1.9,16.6,1
					c2.3-0.4,2.4-1,1.1-2.5c-4.5-5.3-10.4-8.9-16.5-12.3c-5.9-3.4-12-6.5-17-11c-5.6-5.1-8.5-11.1-8-18.4c0.1-1.6,0.6-2.6,2.2-3.5
					c8-4.4,15.8-3.3,23.5,0.4c5,2.4,9.5,5.4,13.8,8.6c9.7,7.2,20.9,11.2,32.9,13.8c11.3,2.5,23,4.3,32.9,10.4
					c23.7,14.4,41.9,32.9,49.5,58.7c4.1,14,5.1,28.4,5.2,42.9c0.1,16.5-1.4,33-2.6,49.4c-0.1,2-1.2,2.3-3,2.3
					C376.3,518.9,364.3,518.9,352.4,518.9z"/>
				<path id="XMLID_1480_" class="st3" d="M301,143.1c-11,1.5-21.6,3.9-31.7,7.7c-4.6,1.7-9.2,3.4-13.7,5.5
					c-1.3,0.6-2.1,1.4-2.5,2.7c-1,3.2-3.2,4.2-6.7,3.4c-1.3-0.3-2.2-0.1-3.3,0.5c-12.5,7.4-23.4,16.5-33.2,26.8
					c-4,4.2-5.1,9-5.2,14.2c-0.1,2.2-0.1,4.5-0.2,6.7c-0.1,4.8-1.8,9.1-5.1,12.9c-5.6,6.4-6.1,13.7-1.5,20.8
					c6.5,10.1,13.3,20.1,18.5,30.8c1.2,2.5,3.2,4.6,5.8,5.9c6.1,3.2,11.9,6.9,19.3,7.6c4.2,0.4,7.6,2.9,10.5,5.6
					c4.6,4.2,10,7.1,16.4,8.5c2.2,0.5,4.2,1.5,6.1,2.6c2.4,1.4,2.9,3.3,2,5.6c-0.3,0.8-0.6,1.5-1.1,2.2c-3.3,4.1-4.9,8.6-3.2,14.1
					c-4.5-2.2-8.3-4.6-12.5-6.1c-11.6-4.2-22.5-2.8-32.6,3.9c-3.5,2.3-4.7,5.6-5.1,9.8c-2.1-1.9-3.2-3.9-4.5-5.8
					c-7.1-10.5-13.4-21.5-21.6-31.4c-5.4-6.6-11.6-12.4-19.9-16c-2.9-1.3-5.8-2.3-9-2.4c-2.2-0.1-2.7-0.9-2.7-2.9
					c-0.2-23.6,5.5-45.9,17.3-66.9c15.1-27,37.4-47.6,66.6-61.9c17-8.3,35.2-13.5,54.4-15.7c8.8-1,17.6-1.1,26.4-1
					c1.9,0,3,0.6,4,2.1c2,3,4.7,5.7,6.3,9.4c-9.1-0.6-17.7-1.1-26.6-0.4c2.4,2.1,5,3.3,8.5,3.4c5.7,0.1,9.2,4.1,9.7,10.3
					c0.1,1.3,0.2,2.7,0.1,4c-0.9,8.3,6.1,13,12.6,14.8c2.2,0.6,2.7,1.4,2.5,3.4c-0.9,15.8-3.7,31.3-6,47
					c-2.1,13.9-3.7,27.8-2.2,41.8c2.2,20.3,11.9,37.2,27.2,51.8c8.9,8.5,19,15.8,28,24.2c7.2,6.7,14.2,13.4,18.9,21.8
					c0.9,1.7,1.7,3.4,2.3,5.2c2.4,7.1-1.1,14.9-8.3,18.3c-5.3,2.5-10.8,4.7-16.2,7.1c-1.5,0.7-2.2,0.3-3.1-0.9
					c-8.4-11.5-18.4-21.6-30.1-30.4c-1.3-1-1.5-1.7-0.5-3c1.8-2.6,2.8-5.5,3.8-8.4c1.5-4.4,4-8.1,7.8-11.2c1.2-1,2.4-2.1,3.5-3.3
					c3.1-3.7,2.2-7.3-2.4-9.6c-3.7-1.8-7.7-1.8-11.7-2.3c-8.7-1.1-15.2-4.9-18.9-12.4c-0.6-1.2-1.3-2.4-1.9-3.6
					c-1.6-2.7-4.1-4.4-7.5-4.4c-4.6,0-8.6-1.6-12.5-3.5c-3.1-1.5-6.3-2.9-9.4-4.5c-3.1-1.6-6.4-2.3-9.9-2c-4.3,0.4-8.6,0.8-12.9,1.2
					c-0.5,0-1.1,0-1.4,0.3c-4.8,3.2-10,1.2-15.1,1c-2.7-0.1-4.2-1.5-4.3-3.9c-0.3-4.8-3-7.6-8-8.6c-1.6-0.3-3.2-0.9-4.8-1.4
					c-4.5-1.5-5-3.4-1.6-6.3c1.2-1,2.2-2.1,2.2-3.6c0.1-2.1-1-3-3.3-2.5c-2.1,0.4-3.7,1.6-5.6,2.4c-4.9,2.3-7.9,1.3-10.1-3.3
					c-4.6-9.4,0.9-18.2,12.4-19.6c9-1.1,14.3,1.3,19,8.6c1.1,1.7,2.3,4.1,4.9,3.4c2.6-0.7,3.3-3.2,3.2-5.6c-0.1-2.4-0.2-4.8-0.3-7.3
					c-0.1-4.1,1.1-6.3,5.5-7.2c7.7-1.5,11.3-6.2,13.7-12.3c3-7.5,8.7-11.2,17.5-11c4.6,0.1,8.9-0.9,12.8-3.3
					c2.5-1.5,5.5-1.8,8.2-2.7c3.3-1.1,4.5-3.2,2.3-5.3c-5.5-5.3-6.7-12.5-10.7-18.4c-1.1-1.6-2.2-3.2-3.7-4.5
					c-2.6-2.3-5.4-2.7-8.6-1.4c-6.2,2.5-7.6,2.1-11.1-3.3c-0.7-1.1-1.5-2.1-2.2-3.2c-1-1.6-2.6-2.2-4.5-2.1
					c-1.9,0.1-3.4,1.1-3.9,2.8c-0.9,2.9-1.7,5.9-2.4,8.9c-0.5,2-1.1,4-2.2,5.8c-1.5,2.4-3.4,3.3-6.2,2.1c-6.3-2.6-12-6.2-15.6-11.8
					c-1.8-2.8-1.3-5.2,1.5-7.4c3.5-2.6,7.5-4.3,12-4.6c5.5-0.4,5.8-0.7,6.6-5.6c0.2-1.3,0.6-2.6,1.8-3.6c3.3-2.6,7.2-4.1,11.5-4.2
					c4-0.1,5.9,2.7,4.5,6.2c-2.2,5.3-0.7,7.4,5.6,7.6c2.4,0.1,4.9,0.4,7.2-0.8c4.1-2,4.5-6.6,0.6-8.9c-2.8-1.7-5.8-3-8.7-4.5
					c-1.7-0.9-3.2-2.1-4.3-3.6C296,150.7,296.6,147.7,301,143.1z"/>
				<path id="XMLID_1479_" class="st3" d="M490.5,214.1c13.1,37.7,12.3,74.5-2.9,111.1c-1-12.5,1.2-24.9,0.4-37.4
					c-0.7-10.6-2.2-21-4.9-31.3c-0.3-1.1-0.6-2.2-0.1-3.4c5.2-11.6,6.5-23.7,6.8-36.1C489.8,216.1,489.5,215.3,490.5,214.1z"/>
				<path id="XMLID_1478_" class="st3" d="M467,238.6c0.4,0.1,0.8,0.4,0.6,0.7c-0.4,0.6-0.8,0.1-1-0.3
					C466.7,238.9,466.9,238.7,467,238.6z"/>
				<path id="XMLID_1477_" class="st3" d="M366,119.9c-0.2-0.2-0.3-0.3-0.5-0.5C365.7,119.6,365.8,119.8,366,119.9L366,119.9z"/>
			</g>
		</g>
	</g>
</g>
</svg>
