<?xml version="1.0" encoding="utf-8"?>
<!-- Generator: Adobe Illustrator 19.0.0, SVG Export Plug-In . SVG Version: 6.00 Build 0)  -->
<svg version="1.1" id="Layer_1" xmlns="http://www.w3.org/2000/svg" xmlns:xlink="http://www.w3.org/1999/xlink" x="0px" y="0px"
	 viewBox="-35 -54 720 720" style="enable-background:new -35 -54 720 720;" xml:space="preserve">
<style type="text/css">
	.st0{display:none;}
	.st1{fill:#FFFFFF;}
	.st2{fill:#00ACAD;stroke:#FFFFFF;stroke-width:22;stroke-miterlimit:10;}
	.st3{fill:#052441;}
</style>
<g id="Guías" class="st0">
</g>
<g id="Desktop">
</g>
<g id="Grid_x5F_Desktop" class="st0">
</g>
<g id="Tablet" class="st0">
</g>
<g id="Grid_x5F_Tablet" class="st0">
</g>
<g id="Mobile" class="st0">
</g>
<g id="Grid_x5F_Mobile" class="st0">
</g>
<g id="XMLID_1593_">
	<path id="XMLID_1592_" class="st1" d="M374.7,117.5c-11.3,0-22.6,2.5-32.7,7.7c-8,4.1-16.3,9.4-25.7,16.3c0,0,0,0,0,0
		c-13.8,10.2-27.7,22.4-41.1,34.2c-2.7,2.4-5.5,4.8-8.2,7.2c-31.2,27.3-57.1,54-79.2,81.7c-15.8,19.7-32.1,40.2-42.2,60.7
		c-9.3,18.8-11.7,34-8,49.4c4.4,18.1,22.9,44.2,61.7,63.2c42,20.6,87.5,35.7,139.3,46.3c27.6,5.6,85,17.4,122.5,3.9
		c13.6-4.9,25.9-14,34.7-25.8c27.4-36.6,10.4-103-3.2-156.4c-1.1-4.2-2.1-8.3-3.1-12.4c-1.3-5-2.5-10.1-3.8-15.3
		c-11.8-48-25.3-102.3-53.8-135.3C417.5,126.5,396,117.5,374.7,117.5z"/>
	<g id="XMLID_1400_">
		<path id="XMLID_1348_" class="st2" d="M420.4,586.5c-32.7,0-66-5.5-98.3-12.1c-59.5-12.2-112.3-29.8-161.4-53.9
			c-24.9-12.2-47.6-28.4-65.8-46.8c-23-23.4-38.1-49.4-44.9-77.5c-19.4-80.2,31-143.2,67.8-189.2c25.6-32,55.2-62.5,90.5-93.5
			c2.6-2.3,5.3-4.6,7.9-7c14.9-13.1,30.2-26.6,47.2-39.2c13.4-9.9,26-17.8,38.4-24.2C369,8.9,453.7,25.5,503.2,82.7
			c43,49.7,59.3,115.5,73.6,173.5c1.2,5,2.5,10,3.7,14.9c1,3.9,2,7.9,3.1,12c8.4,33,18,70.4,20.2,109.3
			c2.9,51.1-7.7,92.1-32.6,125.2c-19.7,26.3-46.4,46.1-77.1,57.1C470.5,583.2,445.7,586.5,420.4,586.5z M376.6,117.5
			c-11.3,0-22.6,2.5-32.7,7.7c-8,4.1-16.3,9.4-25.7,16.3c0,0,0,0,0,0c-13.8,10.2-27.7,22.4-41.1,34.2c-2.7,2.4-5.5,4.8-8.2,7.2
			c-31.2,27.3-57.1,54-79.2,81.7c-15.8,19.7-32.1,40.2-42.2,60.7c-9.3,18.8-11.7,34-8,49.4c4.4,18.1,22.9,44.2,61.7,63.2
			c42,20.6,87.5,35.7,139.3,46.3c27.6,5.6,85,17.4,122.5,3.9c13.6-4.9,25.9-14,34.7-25.8c27.4-36.6,10.4-103-3.2-156.4
			c-1.1-4.2-2.1-8.3-3.1-12.4c-1.3-5-2.5-10.1-3.8-15.3c-11.8-48-25.3-102.3-53.8-135.3C419.4,126.5,397.9,117.5,376.6,117.5z"/>
		<g id="XMLID_1343_">
			<path id="XMLID_1346_" class="st3" d="M322.2,519L322.2,519c-4.9,0-9.5-2.5-14.6-7.8c-22-22.9-44.6-46-66.4-68.4
				c-35.1-36-71.5-73.1-106.3-110.6c-6.7-7.3-12.8-15.3-17.9-23.9l36.8,0.2l30.8-77.4l36,138l6.9-0.2l31-58.4l42,0.8l23.9-67.4
				l20.7,66.6l40.7-0.5l27.8,81.1l6.4,0.1l55.1-149.1l35.2,88.7c-11.5,14.2-24.5,27.5-36.8,39.8c-40.3,40.4-80.6,82.3-119.5,122.8
				l-15.4,16C334.1,514.1,328.8,519,322.2,519z"/>
			<path id="XMLID_1344_" class="st3" d="M416.7,368.5l-23.2-70l-40.6,0.5l-24.6-78.5l-5.6-0.1l-29.8,78.7h-41.3L226.4,347
				l-37.2-141l-5.5-0.3l-36.3,87.5h-38.2l-1.3-3.1c-14-34.1-13.4-73.3,1.7-107.3c15.5-34.9,44.3-61.4,81.1-74.6
				c49-17.5,96.5-1.4,127.2,43c1.4,2.1,2.8,4.2,4.4,6.6c0.8-1,1.4-2,2.1-2.9c20-29.8,48.5-48.6,80.1-52.8
				c32.3-4.3,65.4,6.8,93.3,31.1c25.1,21.9,41.2,50.5,49,87.5l0.1,0.6l0.3,3c1.2,12.5,2.3,24.2-0.4,36.3
				c-4.4,18.5-12.2,35.9-23.9,53.3l-5.4,8l-39.9-101.4l-5.3,0.1L416.7,368.5z"/>
		</g>
	</g>
</g>
</svg>
