<?xml version="1.0" encoding="utf-8"?>
<!-- Generator: Adobe Illustrator 19.0.0, SVG Export Plug-In . SVG Version: 6.00 Build 0)  -->
<svg version="1.1" id="Layer_1" xmlns="http://www.w3.org/2000/svg" xmlns:xlink="http://www.w3.org/1999/xlink" x="0px" y="0px"
	 viewBox="-35 -54 720 720" style="enable-background:new -35 -54 720 720;" xml:space="preserve">
<style type="text/css">
	.st0{display:none;}
	.st1{fill:#FFFFFF;}
	.st2{fill:#00ACAD;}
	.st3{fill:#052441;}
</style>
<g id="Guías" class="st0">
</g>
<g id="Desktop">
</g>
<g id="Grid_x5F_Desktop" class="st0">
</g>
<g id="Tablet" class="st0">
</g>
<g id="Grid_x5F_Tablet" class="st0">
</g>
<g id="Mobile" class="st0">
</g>
<g id="Grid_x5F_Mobile" class="st0">
</g>
<g id="XMLID_1626_">
	<path id="XMLID_1625_" class="st1" d="M376.6,119.4c-11.3,0-22.6,2.5-32.7,7.7c-8,4.1-16.3,9.4-25.7,16.3l0,0
		c-13.8,10.2-27.7,22.4-41.1,34.2c-2.7,2.4-5.5,4.8-8.2,7.2c-31.2,27.3-57.1,54-79.2,81.7c-15.8,19.7-32.1,40.2-42.2,60.7
		c-9.3,18.8-11.7,34-8,49.4c4.4,18.1,22.9,44.2,61.7,63.2c42,20.6,87.5,35.7,139.3,46.3c27.6,5.6,85,17.4,122.5,3.9
		c13.6-4.9,25.9-14,34.7-25.8c27.4-36.6,10.4-103-3.2-156.4c-1.1-4.2-2.1-8.3-3.1-12.4c-1.3-5-2.5-10.1-3.8-15.3
		c-11.8-48-25.3-102.3-53.8-135.3C419.4,128.3,397.9,119.4,376.6,119.4z"/>
	<g id="XMLID_1_">
		<g id="XMLID_824_">
			<path class="st2" d="M420.4,597.4c-35.6,0-70.8-6.2-100.5-12.3c-60.5-12.3-114.1-30.3-164.1-54.8c-26-12.7-49.7-29.7-68.7-48.9
				c-24.5-24.8-40.5-52.6-47.8-82.6c-9.2-38.1-4.7-75.6,13.6-114.7c15.3-32.7,38.1-61.1,56.3-84c26-32.5,56-63.5,91.9-94.9
				c2.6-2.3,5.2-4.6,7.9-6.9c15-13.2,30.6-26.9,48-39.8c13.9-10.3,26.9-18.5,39.9-25.1c24.3-12.5,51.9-19,79.7-19
				c52.2,0,101.4,22.2,135,61c44.7,51.7,61.3,118.8,76,178.1c1.2,5,2.5,10,3.7,14.8c1,3.9,2,7.9,3,12c8.6,33.5,18.3,71.5,20.6,111.4
				c3.1,53.8-8.3,97.2-34.7,132.5c-21,28-49.4,49.1-82.1,60.9C474.7,593.3,449.3,597.4,420.4,597.4L420.4,597.4z M376.6,128.4
				c-9.8,0-19.4,2.2-27.7,6.5c-7.4,3.8-15.3,8.8-24.1,15.3c-13.5,9.9-27.1,22-40.4,33.7c-2.7,2.4-5.5,4.8-8.2,7.2
				c-30.7,26.9-56.2,53.1-77.9,80.3c-15.4,19.3-31.4,39.2-41,58.7c-8.1,16.5-10.3,29.1-7.2,42c5.8,23.9,33.7,45,55.9,55.9
				c41.1,20.2,85.8,35,136.6,45.4c18.1,3.7,48.4,9.9,77.2,9.9l0,0c15.8,0,29-1.9,39.3-5.6c11.6-4.2,22.1-12,29.6-22
				c24.3-32.3,8-96-5.1-147.1c-1.1-4.2-2.1-8.4-3.2-12.4c-1.3-5-2.5-10.1-3.8-15.3c-11.5-46.8-24.6-99.8-51.5-130.8
				C413.6,136.5,395.4,128.4,376.6,128.4z"/>
			<path class="st1" d="M376.6,25.4c47.4,0,94.5,20,126.7,57.2c43,49.7,59.3,115.5,73.6,173.5c1.2,5,2.5,10,3.7,14.9
				c1,3.9,2,7.9,3.1,12c8.4,33,18,70.4,20.2,109.3c2.9,51.1-7.7,92.1-32.6,125.2c-19.7,26.3-46.4,46.1-77.1,57.1
				c-23.7,8.5-48.5,11.8-73.8,11.8c-32.7,0-66-5.5-98.3-12.1c-59.5-12.2-112.3-29.8-161.4-53.9c-24.9-12.2-47.6-28.4-65.8-46.8
				c-23-23.4-38.1-49.4-44.9-77.5c-19.4-80.2,31-143.2,67.8-189.2c25.6-32,55.2-62.5,90.5-93.5c2.6-2.3,5.3-4.6,7.9-7
				c14.9-13.1,30.2-26.6,47.2-39.2c13.4-9.9,26-17.8,38.4-24.2C325.4,31.2,351,25.4,376.6,25.4 M419.9,494.3c15.3,0,30.3-1.7,43-6.3
				c13.6-4.9,25.9-14,34.7-25.8c27.4-36.6,10.4-103-3.2-156.4c-1.1-4.2-2.1-8.3-3.1-12.4c-1.3-5-2.5-10.1-3.8-15.3
				c-11.8-48-25.3-102.3-53.8-135.3c-14.2-16.4-35.7-25.4-57-25.4c-11.3,0-22.6,2.5-32.7,7.7c-8,4.1-16.3,9.4-25.7,16.3l0,0
				c-13.8,10.2-27.7,22.4-41.1,34.2c-2.7,2.4-5.5,4.8-8.2,7.2c-31.2,27.3-57.1,54-79.2,81.7c-15.8,19.7-32.1,40.2-42.2,60.7
				c-9.3,18.8-11.7,34-8,49.4c4.4,18.1,22.9,44.2,61.7,63.2c42,20.6,87.5,35.7,139.3,46.3C358.7,487.9,390,494.3,419.9,494.3
				 M376.6,3.4v22V3.4c-29.6,0-58.8,7-84.7,20.3c-13.5,6.9-27.1,15.5-41.5,26.1c-17.8,13.1-33.5,27-48.7,40.4
				c-2.6,2.3-5.3,4.6-7.9,6.9c-36.3,31.8-66.8,63.3-93.2,96.3c-18.6,23.3-41.8,52.3-57.7,86.2c-8.9,19-14.8,38.1-17.4,56.7
				c-3.1,21.7-2.1,43.7,3.1,65.2c7.7,32,24.8,61.5,50.6,87.8c19.8,20.1,44.7,37.8,71.7,51.1c50.8,24.9,105.3,43.1,166.7,55.7
				c30.3,6.2,66.2,12.5,102.7,12.5c30.2,0,56.8-4.3,81.3-13.1c34.7-12.5,64.9-34.9,87.2-64.6c28.1-37.5,40.2-83.2,36.9-139.7
				c-2.4-41-12.2-79.5-20.9-113.4c-1-4.1-2.1-8-3-11.9c-1.2-4.8-2.4-9.8-3.7-14.8c-14.9-60.5-31.8-129-78.3-182.7
				c-17.9-20.7-39.9-37-65.3-48.3C430.2,9.1,403.2,3.4,376.6,3.4L376.6,3.4z M419.9,472.3c-27.7,0-57.3-6.1-75-9.7
				c-49.9-10.2-93.7-24.8-134-44.5c-30-14.7-46.8-35-50-48.6c-1.7-7.2-2.3-16.9,6.3-34.5c9.1-18.4,24.6-37.8,39.7-56.6
				c21.3-26.6,46.3-52.4,76.5-78.9c2.7-2.3,5.3-4.7,8-7.1l0.2-0.1c13.1-11.5,26.6-23.4,39.6-33.1c8.3-6.2,15.7-10.9,22.6-14.4
				c6.8-3.5,14.6-5.3,22.7-5.3c15.7,0,30.7,6.6,40.4,17.8c25.1,29,37.9,80.7,49.1,126.2c1.2,4.8,2.5,10.2,3.8,15.4
				c1,4.1,2.1,8.2,3.2,12.5c6.6,25.8,14.1,55,16.4,81.1c2.4,26.1-0.8,45.2-9.5,56.7c-6.3,8.3-15,14.8-24.5,18.3
				C446.4,470.6,434.4,472.3,419.9,472.3L419.9,472.3z"/>
		</g>
		<g id="XMLID_5_">
			<g id="cPU8tr.tif_2_">
				<g id="XMLID_16_">
					<path id="XMLID_592_" class="st3" d="M274,437.9c-3.7-1.8-7.2-3.6-10.8-5.2c-16.8-7.7-34.2-13.3-52.4-16.4
						c-14.3-2.4-28.6-3.1-43-2.1c-11.6,0.8-23,2.7-34.2,5.6c-3.2,0.8-6.1-0.2-7.5-2.7c-1.4-2.4-0.9-5.6,1.4-7.4
						c0.7-0.6,1.7-1.1,2.6-1.3c12.2-3.2,24.5-5.5,37.1-6c9.3-0.3,18.7-0.5,28,0.1c17.4,1.1,34.4,4.9,50.9,10.5
						c11.7,4,23.1,8.9,34,14.6c0.1,0,0.2,0,0.6-0.1c-3.3-2.6-6.5-5.1-9.7-7.5c-16.8-12.6-35-22.5-54.8-29.5
						c-9.4-3.3-19.1-5.7-29-7.4c-13.1-2.2-26.4-3-39.7-2.5c-3.7,0.2-6.4-2.1-6.7-5.3c-0.3-3.7,2.1-6.4,6.1-6.5
						c5.3-0.2,10.5-0.3,15.8-0.1c11.2,0.4,22.3,1.7,33.3,4.1c24.7,5.3,47.6,14.8,68.6,28.5c8.1,5.3,15.7,11.3,23.5,17
						c0.3,0.2,0.6,0.4,1.2,0.3c-1.9-2.4-3.8-4.8-5.8-7.1c-13.4-15.6-28.5-29.2-46-40.3c-14.7-9.4-30.5-16.5-47.3-21.2
						c-6.8-1.9-13.7-3.2-20.6-4.8c-3.5-0.8-5.6-3.6-5-6.9c0.6-3.5,3.4-5.4,7.2-4.8c19.1,3.2,37.2,9.1,54.5,17.7
						c23.2,11.5,43.3,27,60.6,46.1c6.9,7.6,13,15.8,19.3,24c7.3,9.5,13.2,20,18.8,30.8c1.8-3.2,3.4-6.3,5.1-9.3
						c7.7-13.9,16.8-26.8,27.2-39c12.4-14.5,26.3-27.3,42-38.1c20.7-14.3,43.3-24.4,68-29.9c3.8-0.8,7.6-1.6,11.4-2.3
						c3.5-0.6,6.3,1.6,6.8,5.1c0.5,3.1-1.5,6-4.9,6.6c-13.7,2.5-27,6.1-39.9,11.5c-17.8,7.3-33.9,17.3-48.6,29.5
						c-11.2,9.3-21.2,19.7-30.2,31c-0.4,0.5-0.7,1-0.8,1.7c1.8-1.4,3.6-2.9,5.4-4.3c22.1-17.4,46.4-30.5,73.6-38.4
						c20.2-5.8,40.8-8.3,61.8-7.5c1.7,0.1,3.5,0.5,5,1.3c2.2,1.3,2.9,4.3,2.1,6.6c-0.9,2.4-3.3,4-6.1,4c-6.2,0-12.4-0.1-18.6,0.2
						c-14.4,0.6-28.6,3.1-42.4,7.2c-23,6.8-43.7,17.9-62.8,32.1c-3.1,2.3-6,4.7-9,7c-0.1,0.1-0.2,0.3-0.7,0.8
						c3.5-1.7,6.6-3.2,9.7-4.7c11.2-5.4,22.8-9.8,34.8-13.2c21.3-6.1,43-8.8,65.1-7.9c13,0.6,25.9,2.5,38.6,5.6
						c1.3,0.3,2.5,0.7,3.8,1.2c2.8,1.1,4.2,4,3.4,7c-0.7,2.7-4,4.8-6.7,4.2c-5.1-1.1-10.1-2.5-15.2-3.3c-8.3-1.2-16.6-2.3-25-2.8
						c-14.7-0.9-29.3,0.3-43.7,3.3c-7.6,1.6-15,3.6-22.5,5.8c-12,3.5-23.3,8.7-34.5,14.3c-0.2,0.1-0.5,0.3-0.6,0.4
						c6.3-1.4,12.5-3,18.9-4.2c16.4-3.3,32.9-4.7,49.7-4.1c21.3,0.7,42,4.6,61.9,12.1c7.2,2.7,14.1,6.1,21.1,9.2
						c2.2,1,3.3,2.8,3.4,5.2c0.1,2.3-0.9,4.1-2.9,5.3c-2,1.2-4,1.1-6.1,0.1c-9.5-4.8-19.3-8.8-29.5-11.9
						c-12.2-3.7-24.6-6.1-37.3-7.2c-11.1-1-22.3-1.1-33.4-0.2c-18.6,1.4-36.7,5.2-54.4,11.3c-5.4,1.9-10.7,3.9-16.1,5.9
						c0,0.2,0.1,0.3,0.1,0.5c0.8,0,1.5,0,2.3,0c46.5,0,92.9,0,139.4-0.1c3.9,0,6.4,1.3,8.2,4.8c3.6,7.5,7.6,14.8,11.4,22.2
						c2.3,4.5-0.4,9.1-5.5,9.1c-37.9,0-75.9,0-113.8,0c-10.7,0-21.3,0-32,0c-1.2,0-1.7,0.5-2.2,1.5c-7,13.9-18.4,21.6-34,21.7
						c-15.8,0.1-27.4-7.4-34.5-21.5c-0.6-1.3-1.3-1.6-2.7-1.6c-38.9,0-77.9,0-116.8,0c-9.4,0-18.8,0-28.2,0c-3.9,0-6.4-2-6.7-5.3
						c-0.1-1.2,0.2-2.5,0.7-3.6c4.1-8.1,8.3-16.1,12.5-24.2c1-1.8,2.6-2.8,4.7-2.9c0.9-0.1,1.9,0,2.8,0c46.2,0,92.4,0,138.6,0
						c0.9,0,1.7,0,2.6,0c0-0.1,0.1-0.2,0.1-0.3c-1.6-0.7-3.2-1.4-4.9-2c-15.9-6.2-32.2-10.8-49-13.5c-15.1-2.4-30.3-3.3-45.5-2.2
						c-25,1.8-48.6,8.3-70.9,19.5c-3.4,1.7-7,0.8-8.6-2.2c-1.7-3.1-0.5-6.7,3-8.4c16-8,32.7-13.8,50.3-17.3
						c13.7-2.7,27.5-4,41.4-3.8c20.2,0.2,40,3.1,59.4,8.7C273.6,438.2,273.7,438.1,274,437.9z"/>
					<path id="XMLID_589_" class="st3" d="M381.2,144.1c0.4-1.1,0.7-2.3,1.3-3.4c3.3-5.8,6.7-11.6,10.1-17.4c1.7-2.9,5.2-4,8.1-2.5
						c3,1.6,4.2,5.1,2.5,8.1c-3.5,6.2-7.1,12.3-10.7,18.4c-1.4,2.4-4.2,3.3-6.9,2.5C383.2,149.1,381.5,146.9,381.2,144.1z"/>
					<path id="XMLID_549_" class="st3" d="M457.5,179.4c0,1.5-0.8,3.3-2.7,4.4c-6.2,3.6-12.3,7.1-18.5,10.6c-3,1.7-6.5,0.6-8.1-2.2
						c-1.7-2.9-0.8-6.4,2.3-8.2c6-3.5,12-6.9,18-10.3C452.6,171.3,457.5,174.1,457.5,179.4z"/>
					<path id="XMLID_159_" class="st3" d="M460.9,244.9c3.4,0,6.9,0,10.3,0c3.5,0,6.1,2.5,6.1,5.9c0,3.3-2.6,6-6.1,6
						c-6.9,0-13.9,0-20.8,0c-3.5,0-6.2-2.7-6.2-5.9c0-3.4,2.7-5.9,6.3-6c1.8,0,3.5,0,5.3,0C457.5,244.9,459.2,244.9,460.9,244.9z"/>
					<path id="XMLID_157_" class="st3" d="M217.3,307.8c3.2,0,5.5,1.7,6.3,4.2c0.8,2.4-0.1,5.2-2.3,6.6c-6.3,3.7-12.7,7.4-19.2,10.9
						c-2.7,1.5-6.2,0.3-7.7-2.3c-1.6-2.8-1-6.3,1.7-7.9c6.3-3.8,12.7-7.4,19.1-11C216.1,307.9,217,307.9,217.3,307.8z"/>
					<path id="XMLID_155_" class="st3" d="M268.8,144.9c-0.2,2.7-2,5-4.6,5.7c-2.7,0.7-5.3-0.3-6.9-2.9c-2.6-4.3-5.1-8.7-7.6-13
						c-0.9-1.6-1.9-3.2-2.8-4.8c-1.7-3.1-0.7-6.6,2.2-8.2c3-1.7,6.4-0.8,8.3,2.3c3.5,5.9,7,11.9,10.4,17.8
						C268.3,142.7,268.5,143.8,268.8,144.9z"/>
					<path id="XMLID_153_" class="st3" d="M319,117.5c0-3.5,0-6.9,0-10.4c0-3.3,2.6-5.9,5.9-6s6,2.4,6.1,5.8
						c0.1,7.1,0.1,14.3,0,21.4c0,3.2-2.8,5.6-6.1,5.6c-3.2,0-5.9-2.5-5.9-5.7C318.9,124.6,319,121.1,319,117.5z"/>
					<path id="XMLID_150_" class="st3" d="M434,306.5c0.9,0.3,2,0.4,2.8,0.9c6.1,3.5,12.3,6.9,18.3,10.5c2.2,1.3,3.3,3.4,2.9,6
						s-2.2,4.6-4.9,4.9c-1.3,0.2-3-0.1-4.1-0.7c-6.1-3.3-12.2-6.8-18.2-10.4c-2.5-1.5-3.5-4.3-2.7-6.9
						C428.9,308.4,431.2,306.7,434,306.5z"/>
					<path id="XMLID_64_" class="st3" d="M199.1,173.8c1.1,0.4,2.2,0.7,3.2,1.2c5.8,3.2,11.6,6.5,17.4,9.8c3.4,1.9,4.5,5.5,2.7,8.5
						c-1.8,2.9-5.5,3.7-8.7,1.8c-5.9-3.4-11.8-6.7-17.7-10.1c-2.3-1.3-3.5-4.1-2.9-6.5C193.9,175.7,196,174,199.1,173.8z"/>
					<path id="XMLID_58_" class="st3" d="M190.7,258c-3.5,0-7,0-10.5,0c-3.7-0.1-6.4-2.6-6.4-5.9c0-3.3,2.6-5.9,6.2-6
						c7-0.1,13.9-0.1,20.9,0c3.6,0,6.1,2.7,6,6.1c0,3.4-2.6,5.8-6.2,5.8C197.3,258,194,258,190.7,258L190.7,258z"/>
				</g>
			</g>
			<g id="XMLID_6_">
				<path id="XMLID_15_" class="st3" d="M349.7,230.8c-3.2-0.2-6.3,2.5-6.6,5.9c-0.2,2.8,0,5.7,0,8.5c2.7,0,5.3,0.2,7.9-0.1
					c2-0.2,3.6-1.6,4.2-3.5c0.5-1.4,0.6-2.9,0.6-4.3C355.9,233.8,353.2,231,349.7,230.8z"/>
				<path id="XMLID_14_" class="st3" d="M300.1,230.9c-3.4,0.5-5.8,3.1-5.9,6.4c-0.1,4.5,1.7,7.5,5.3,8c2.6,0.3,5.2,0.1,7.8,0.1
					c0-3.2,0.4-6.5-0.1-9.7C306.6,232.5,303,230.5,300.1,230.9z"/>
				<path id="XMLID_7_" class="st3" d="M398,225.6c-2.1-18.5-10.8-33.8-25.1-45.8c-17.4-14.6-37.6-20.2-60.2-16.5
					c-18.3,3-33.4,11.8-45,26.1c-14,17.3-19.2,37.1-15.2,59c3.6,19.7,14,35.3,30.5,46.8c1.2,0.8,1.7,1.7,1.7,3.2
					c-0.1,4.4-0.1,8.8,0,13.2c0,2.1-0.3,4.3,0.2,6.3c0.7,2.8,2,5.5,3.1,8.5c-4.7,6.7-4.7,13.1,0.3,20.7c-2.2,2.8-3.6,5.9-3.7,9.5
					c-0.3,10,7,17.4,17.1,17.4c1.7,0,3.5,0,5.4,0c0,2.6-0.1,5,0,7.3c0.5,8.2,7.6,15.4,15.9,16c9.2,0.7,17.5-5.1,19.1-13.5
					c0.6-3.1,0.5-6.4,0.8-9.9c8.7,0.9,16.4-0.7,20.6-9.3c3-6.1,1.9-12-2.2-17.5c2.4-3.1,3.7-6.5,3.8-10.4c0-4-1.4-7.5-3.8-10.6
					c2.7-3.4,3.9-7.2,3.8-11.5c-0.1-5.3,0.1-10.6-0.1-15.8c0-1.6,0.6-2.5,1.8-3.5C390.6,277.7,401.3,254.6,398,225.6z M330.6,380.6
					c-0.2,2.7-2.8,4.8-5.7,4.8c-2.8,0-5.3-2.1-5.5-4.8c-0.2-2.1,0-4.3,0-6.6c3.8,0,7.5,0,11.3,0
					C330.7,376.3,330.8,378.4,330.6,380.6z M348.1,361.9c-7.7,0-15.4,0-23.1,0c-7.8,0-15.6,0-23.3,0c-2.9,0-4.9-1.8-4.9-4.5
					c0-2.6,2-4.5,4.9-4.5c1.3,0,2.5,0,3.8,0c14.2,0,28.5,0,42.7,0c3,0,5.1,1.9,5.1,4.5C353.2,360.1,351.2,361.9,348.1,361.9z
					 M348.1,341c-7.7,0-15.4,0-23.1,0s-15.4,0-23.1,0c-2,0-3.6-0.7-4.5-2.4c-0.9-1.6-0.8-3.2,0.3-4.7c1-1.5,2.5-2,4.2-2
					c15.5,0,30.9,0,46.4,0c3,0,5,2,5,4.6C353.2,339.1,351.1,341,348.1,341z M367.9,239.6c-0.3,9.1-7.3,16.8-16.4,17.6
					c-2.7,0.2-5.5,0-8.3,0c0,21,0,41.7,0,62.6H331c0-20.4,0-41.9,0-62.3c-3.9,0-7.6,0-11.4,0c0,20.8,0,41.5,0,62.3h-12.2
					c0-20.9,0-41.6,0-62.4c-2.1,0-3.9,0-5.7,0c-3.6,0-7-0.6-10.1-2.5c-7.5-4.4-10.8-12-9.1-21.1c1.5-8.3,8.3-14.3,17.5-14.9
					c8.3-0.5,15.5,4.7,18.3,11.9c1.4,3.5,1.2,7.2,1.2,10.8c0,1.2,0,2.4,0,3.6c4,0,7.7,0,11.6,0c0-3-0.1-5.8,0-8.6
					c0.4-6.9,3.5-12.3,9.7-15.5c6.4-3.4,12.8-3.1,18.9,0.8C366,226.1,368.2,232.3,367.9,239.6z"/>
			</g>
		</g>
	</g>
</g>
</svg>
