<?xml version="1.0" encoding="utf-8"?>
<!-- Generator: Adobe Illustrator 19.0.0, SVG Export Plug-In . SVG Version: 6.00 Build 0)  -->
<svg version="1.1" id="Layer_1" xmlns="http://www.w3.org/2000/svg" xmlns:xlink="http://www.w3.org/1999/xlink" x="0px" y="0px"
	 viewBox="-238 211.7 313.1 191.3" style="enable-background:new -238 211.7 313.1 191.3;" xml:space="preserve">
<style type="text/css">
	.st0{display:none;}
	.st1{fill:#00ACAD;}
</style>
<g id="Guías" class="st0">
</g>
<g id="Desktop">
</g>
<g id="Grid_x5F_Desktop" class="st0">
</g>
<g id="Tablet" class="st0">
</g>
<g id="Grid_x5F_Tablet" class="st0">
</g>
<g id="Mobile" class="st0">
</g>
<g id="Grid_x5F_Mobile" class="st0">
</g>
<g id="XMLID_1365_">
	<path id="XMLID_1368_" class="st1" d="M-123.6,382.2c-36.4,6.7-62.8,0.8-78.7-17.4c-6.6-7.6-10.9-16.9-13.8-26.8
		c12,11.8,28,19.1,45.6,19.1c37.4,0,67.8-32.5,67.8-72.7s-30.3-72.7-67.8-72.7c-26.3,0-48,12.9-60.3,39.6
		c-5.7,12.3-7.3,38.3-7.1,40.9c-1,26.3,2.4,61.1,23.1,84.9c15,17.3,36.5,25.9,64.1,25.9c9.3,0,19.3-1,29.9-2.9
		c4.6-0.8,7.7-5.5,6.9-10.5C-114.6,384.6-119,381.3-123.6,382.2z"/>
	<path id="XMLID_1366_" class="st1" d="M54.3,382.2c-36.4,6.7-62.8,0.8-78.7-17.4c-6.6-7.6-10.9-16.9-13.8-26.8
		c12,11.8,28,19.1,45.6,19.1c37.4,0,67.8-32.5,67.8-72.7s-30.3-72.7-67.8-72.7c-26.3,0-48,12.9-60.3,39.6
		c-5.7,12.3-7.3,38.3-7.1,40.9c-1,26.3,2.4,61.1,23.1,84.9c15,17.3,36.5,25.9,64.1,25.9c9.3,0,19.3-1,29.9-2.9
		c4.6-0.8,7.7-5.5,6.9-10.5C63.3,384.6,58.9,381.3,54.3,382.2z"/>
</g>
</svg>
