<?xml version="1.0" encoding="utf-8"?>
<!-- Generator: Adobe Illustrator 19.0.0, SVG Export Plug-In . SVG Version: 6.00 Build 0)  -->
<svg version="1.1" id="Layer_1" xmlns="http://www.w3.org/2000/svg" xmlns:xlink="http://www.w3.org/1999/xlink" x="0px" y="0px"
	 viewBox="-906 906.7 106.5 109.3" style="enable-background:new -906 906.7 106.5 109.3;" xml:space="preserve">
<style type="text/css">
	.st0{display:none;}
	.st1{fill:#00ACAC;}
	.st2{fill:#FFFFFF;}
	.st3{fill-rule:evenodd;clip-rule:evenodd;fill:#FFFFFF;}
</style>
<g id="Guías" class="st0">
</g>
<g id="Desktop">
</g>
<g id="Grid_x5F_Desktop" class="st0">
</g>
<g id="Tablet">
</g>
<g id="Grid_x5F_Tablet" class="st0">
</g>
<g id="Mobile">
</g>
<g id="Grid_x5F_Mobile" class="st0">
</g>
<g id="XMLID_1339_">
	<path id="XMLID_1341_" class="st1" d="M-1758.2,1813.7c-29.1,0-52.7,24-52.7,53.5c0,9.6,2.5,18.5,6.8,26.3l-7.9,28.8l28.4-8.2
		c7.5,4.2,16.2,6.6,25.4,6.6c29.1,0,52.7-24,52.7-53.5S-1729.1,1813.7-1758.2,1813.7z M-1758.2,1911.7c-9.1,0-17.6-2.8-24.6-7.7
		l-16.1,4.8l4.5-16.5c-4.8-7.1-7.6-15.7-7.6-25c0-24.5,19.6-44.4,43.7-44.4s43.7,19.9,43.7,44.4
		C-1714.5,1891.8-1734.1,1911.7-1758.2,1911.7z"/>
	<path id="XMLID_1340_" class="st1" d="M-1734,1878.3c-1.4-0.7-7.8-3.9-9-4.4c-1.3-0.4-2.1-0.7-3,0.7c-0.8,1.3-3.4,4.3-4.2,5.2
		c-0.8,1-1.6,1-2.8,0.4c-1.4-0.7-5.7-2.1-10.7-6.7c-4-3.6-6.7-7.9-7.4-9.2c-0.7-1.5-0.1-2.1,0.5-2.8c0.7-0.5,1.4-1.5,2-2.3
		c0.2-0.2,0.4-0.4,0.5-0.6c0.4-0.5,0.5-1,0.8-1.6c0.5-0.9,0.3-1.7-0.1-2.3c-0.2-0.7-2.9-7.3-4.1-9.9c-1.1-2.7-2.2-2.2-2.9-2.2
		c-0.8,0-1.7-0.1-2.6-0.1c-1,0-2.3,0.3-3.5,1.7c-1.3,1.3-4.7,4.5-4.7,11.2c0,1.5,0.3,3.1,0.8,4.5c1.3,4.8,4.2,8.6,4.7,9.3
		c0.7,0.9,9.1,14.8,22.6,20.1c13.6,5.3,13.6,3.5,15.9,3.3c2.4-0.2,7.8-3.2,9-6.4c1.1-3.1,1.1-5.8,0.7-6.4
		C-1731.8,1879.3-1732.7,1878.9-1734,1878.3L-1734,1878.3z"/>
</g>
<g id="XMLID_1_">
	<path id="XMLID_3_" class="st2" d="M-852.2,907c-29.1,0-52.7,24-52.7,53.5c0,9.6,2.5,18.5,6.8,26.3l-7.9,28.8l28.4-8.2
		c7.5,4.2,16.2,6.6,25.4,6.6c29.1,0,52.7-24,52.7-53.5C-799.5,931-823.1,907-852.2,907z M-852.2,1005c-9.1,0-17.6-2.8-24.6-7.7
		l-16.1,4.8l4.5-16.5c-4.8-7.1-7.6-15.7-7.6-25c0-24.5,19.6-44.4,43.7-44.4c24.1,0,43.7,19.9,43.7,44.4
		C-808.5,985.1-828.1,1005-852.2,1005z"/>
	<path id="XMLID_2_" class="st3" d="M-828,971.6c-1.4-0.7-7.8-3.9-9-4.4c-1.3-0.4-2.1-0.7-3,0.7c-0.8,1.3-3.4,4.3-4.2,5.2
		c-0.8,1-1.6,1-2.8,0.4c-1.4-0.7-5.7-2.1-10.7-6.7c-4-3.6-6.7-7.9-7.4-9.2c-0.7-1.5-0.1-2.1,0.5-2.8c0.7-0.5,1.4-1.5,2-2.3
		c0.2-0.2,0.4-0.4,0.5-0.6c0.4-0.5,0.5-1,0.8-1.6c0.5-0.9,0.3-1.7-0.1-2.3c-0.2-0.7-2.9-7.3-4.1-9.9c-1.1-2.7-2.2-2.2-2.9-2.2
		c-0.8,0-1.7-0.1-2.6-0.1c-1,0-2.3,0.3-3.5,1.7c-1.3,1.3-4.7,4.5-4.7,11.2c0,1.5,0.3,3.1,0.8,4.5c1.3,4.8,4.2,8.6,4.7,9.3
		c0.7,0.9,9.1,14.8,22.6,20.1c13.6,5.3,13.6,3.5,15.9,3.3c2.4-0.2,7.8-3.2,9-6.4c1.1-3.1,1.1-5.8,0.7-6.4
		C-825.8,972.6-826.7,972.2-828,971.6L-828,971.6z"/>
</g>
</svg>
