<?xml version="1.0" encoding="utf-8"?>
<!-- Generator: Adobe Illustrator 19.0.0, SVG Export Plug-In . SVG Version: 6.00 Build 0)  -->
<svg version="1.1" id="Layer_1" xmlns="http://www.w3.org/2000/svg" xmlns:xlink="http://www.w3.org/1999/xlink" x="0px" y="0px"
	 viewBox="-906 906.7 105.9 109.3" style="enable-background:new -906 906.7 105.9 109.3;" xml:space="preserve">
<style type="text/css">
	.st0{display:none;}
	.st1{fill:#00ACAC;}
</style>
<g id="Guías" class="st0">
</g>
<g id="Desktop">
</g>
<g id="Grid_x5F_Desktop" class="st0">
</g>
<g id="Tablet">
</g>
<g id="Grid_x5F_Tablet" class="st0">
</g>
<g id="Mobile">
</g>
<g id="Grid_x5F_Mobile" class="st0">
</g>
<g id="XMLID_1344_">
	<g id="XMLID_1350_">
		<path id="XMLID_1351_" class="st1" d="M-820,1016.1h-66.1c-11,0-19.9-9.1-19.9-20.2v-69c0-11.2,8.9-20.2,19.9-20.2h66.1
			c11,0,19.9,9.1,19.9,20.2v69C-800.1,1007-809,1016.1-820,1016.1z M-887.3,916.6c-4.9,0-8.9,4.1-8.9,9.1v71.5c0,5,4,9.1,8.9,9.1
			h68.5c4.9,0,8.9-4.1,8.9-9.1v-71.5c0-5-4-9.1-8.9-9.1H-887.3z"/>
	</g>
	<g id="XMLID_1346_">
		<path id="XMLID_1347_" class="st1" d="M-853.1,986.6c-13.7,0-24.9-11.3-24.9-25.2c0-13.9,11.2-25.2,24.9-25.2
			c13.7,0,24.9,11.3,24.9,25.2C-828.2,975.3-839.3,986.6-853.1,986.6z M-853.1,945.4c-8.6,0-15.7,7.1-15.7,15.9
			c0,8.8,7,15.9,15.7,15.9c8.6,0,15.7-7.1,15.7-15.9C-837.4,952.6-844.4,945.4-853.1,945.4z"/>
	</g>
	<ellipse id="XMLID_1345_" class="st1" cx="-823.8" cy="931.8" rx="7.1" ry="7.2"/>
</g>
</svg>
