<?xml version="1.0" encoding="utf-8"?>
<!-- Generator: Adobe Illustrator 19.0.0, SVG Export Plug-In . SVG Version: 6.00 Build 0)  -->
<svg version="1.1" id="Layer_1" xmlns="http://www.w3.org/2000/svg" xmlns:xlink="http://www.w3.org/1999/xlink" x="0px" y="0px"
	 viewBox="-906 916.4 105.2 89.6" style="enable-background:new -906 916.4 105.2 89.6;" xml:space="preserve">
<style type="text/css">
	.st0{display:none;}
	.st1{fill:#00ACAC;}
	.st2{fill:#FFFFFF;}
</style>
<g id="Guías" class="st0">
</g>
<g id="Desktop">
</g>
<g id="Grid_x5F_Desktop" class="st0">
</g>
<g id="Tablet">
</g>
<g id="Grid_x5F_Tablet" class="st0">
</g>
<g id="Mobile">
</g>
<g id="Grid_x5F_Mobile" class="st0">
</g>
<path id="XMLID_1337_" class="st1" d="M-1761.9,1859.1c-13.1,0.4-14.6-0.3-45.4-21.5c-6,9.8-3.1,18.6,3.2,27.9
	c-2.8-0.2-4.7-0.4-6.9-0.6c-0.3,10.6,6.3,16.1,13.5,20.8c-1.3,1.1-2.6,2.2-3.8,3.2c5.2,5.4,10.4,10.8,16.4,17
	c-8.3,2.3-17.5,4.9-27,7.6c2.1,1.2,4.2,2.6,6.5,3.6c36.1,15.4,77-4.2,87.4-42c2.9-10.5,0.4-23,11.4-30.9c-2.4,0.5-4.8,1-7.4,1.6
	c2-3.5,3.7-6.5,5.4-9.4c-8.1,3.5-14.5,3.1-21.6-1.8c-3.2-2.2-8.8-1.9-13.1-1.1C-1754.9,1835.4-1760.2,1843.1-1761.9,1859.1z"/>
<path id="XMLID_1_" class="st2" d="M-855.9,942.7c-13.1,0.4-14.6-0.3-45.4-21.5c-6,9.8-3.1,18.6,3.2,27.9c-2.8-0.2-4.7-0.4-6.9-0.6
	c-0.3,10.6,6.3,16.1,13.5,20.8c-1.3,1.1-2.6,2.2-3.8,3.2c5.2,5.4,10.4,10.8,16.4,17c-8.3,2.3-17.5,4.9-27,7.6
	c2.1,1.2,4.2,2.6,6.5,3.6c36.1,15.4,77-4.2,87.4-42c2.9-10.5,0.4-23,11.4-30.9c-2.4,0.5-4.8,1-7.4,1.6c2-3.5,3.7-6.5,5.4-9.4
	c-8.1,3.5-14.5,3.1-21.6-1.8c-3.2-2.2-8.8-1.9-13.1-1.1C-848.9,919-854.2,926.7-855.9,942.7z"/>
</svg>
