<?xml version="1.0" encoding="utf-8"?>
<!-- Generator: Adobe Illustrator 19.0.0, SVG Export Plug-In . SVG Version: 6.00 Build 0)  -->
<svg version="1.1" id="Layer_1" xmlns="http://www.w3.org/2000/svg" xmlns:xlink="http://www.w3.org/1999/xlink" x="0px" y="0px"
	 viewBox="-906 906.7 105.9 109.3" style="enable-background:new -906 906.7 105.9 109.3;" xml:space="preserve">
<style type="text/css">
	.st0{display:none;}
	.st1{fill:#00ACAC;}
	.st2{fill:#00BBB6;}
</style>
<g id="Guías" class="st0">
</g>
<g id="Desktop">
</g>
<g id="Grid_x5F_Desktop" class="st0">
</g>
<g id="Tablet">
</g>
<g id="Grid_x5F_Tablet" class="st0">
</g>
<g id="Mobile">
</g>
<g id="Grid_x5F_Mobile" class="st0">
</g>
<g id="XMLID_1344_">
	<g id="XMLID_1350_">
		<path id="XMLID_1351_" class="st1" d="M-1726,1922.8h-66.1c-11,0-19.9-9.1-19.9-20.2v-69c0-11.2,8.9-20.2,19.9-20.2h66.1
			c11,0,19.9,9.1,19.9,20.2v69C-1706.1,1913.7-1715,1922.8-1726,1922.8z M-1793.3,1823.3c-4.9,0-8.9,4.1-8.9,9.1v71.5
			c0,5,4,9.1,8.9,9.1h68.5c4.9,0,8.9-4.1,8.9-9.1v-71.5c0-5-4-9.1-8.9-9.1H-1793.3z"/>
	</g>
	<g id="XMLID_1346_">
		<path id="XMLID_1347_" class="st1" d="M-1759.1,1893.3c-13.7,0-24.9-11.3-24.9-25.2s11.2-25.2,24.9-25.2s24.9,11.3,24.9,25.2
			S-1745.3,1893.3-1759.1,1893.3z M-1759.1,1852.1c-8.6,0-15.7,7.1-15.7,15.9s7,15.9,15.7,15.9c8.6,0,15.7-7.1,15.7-15.9
			C-1743.4,1859.3-1750.4,1852.1-1759.1,1852.1z"/>
	</g>
	<ellipse id="XMLID_1345_" class="st1" cx="-1729.8" cy="1838.5" rx="7.1" ry="7.2"/>
</g>
<path id="XMLID_1354_" class="st2" d="M-824.7,906.7V924H-837c-4.2,0-7.6,3.4-7.6,7.7v14.5h19l-2.5,19.9h-16.6v50.3h-20.2V966h-16.6
	v-19.8h16.8v-17.4c0-12.6,10.2-22.8,22.7-22.5L-824.7,906.7z"/>
</svg>
